<?xml version="1.0" encoding="UTF-8" standalone="no"?>
<!-- Created with Inkscape (http://www.inkscape.org/) -->

<svg
   width="218.02219mm"
   height="57.512207mm"
   viewBox="0 0 218.02218 57.512208"
   version="1.1"
   id="svg5"
   xml:space="preserve"
   inkscape:version="1.2.2 (732a01da63, 2022-12-09)"
   sodipodi:docname="logo-full-black.svg"
   xmlns:inkscape="http://www.inkscape.org/namespaces/inkscape"
   xmlns:sodipodi="http://sodipodi.sourceforge.net/DTD/sodipodi-0.dtd"
   xmlns:xlink="http://www.w3.org/1999/xlink"
   xmlns="http://www.w3.org/2000/svg"
   xmlns:svg="http://www.w3.org/2000/svg"><sodipodi:namedview
     id="namedview7"
     pagecolor="#ffffff"
     bordercolor="#ffffff"
     borderopacity="1"
     inkscape:showpageshadow="0"
     inkscape:pageopacity="1"
     inkscape:pagecheckerboard="1"
     inkscape:deskcolor="#505050"
     inkscape:document-units="mm"
     showgrid="false"
     inkscape:zoom="0.84096521"
     inkscape:cx="184.90658"
     inkscape:cy="231.87642"
     inkscape:window-width="1600"
     inkscape:window-height="837"
     inkscape:window-x="-8"
     inkscape:window-y="136"
     inkscape:window-maximized="1"
     inkscape:current-layer="layer1" /><defs
     id="defs2"><linearGradient
       inkscape:collect="always"
       id="linearGradient12461"><stop
         style="stop-color:#e301bd;stop-opacity:1;"
         offset="0"
         id="stop12457" /><stop
         style="stop-color:#e301bd;stop-opacity:0;"
         offset="1"
         id="stop12459" /></linearGradient><rect
       x="319.87054"
       y="131.9912"
       width="520.83014"
       height="103.45256"
       id="rect8242" /><rect
       x="351.9765"
       y="99.885223"
       width="346.03094"
       height="115.34365"
       id="rect8184" /><rect
       x="260.41504"
       y="34.484184"
       width="466.13104"
       height="99.885223"
       id="rect8120" /><filter
       inkscape:collect="always"
       style="color-interpolation-filters:sRGB"
       id="filter8855"
       x="-0.016032765"
       y="-0.0043704999"
       width="1.0320655"
       height="1.008741"><feGaussianBlur
         inkscape:collect="always"
         stdDeviation="0.035058246"
         id="feGaussianBlur8857" /></filter><linearGradient
       inkscape:collect="always"
       xlink:href="#linearGradient12461"
       id="linearGradient12463"
       x1="321.79109"
       y1="164.86713"
       x2="783.16646"
       y2="164.86713"
       gradientUnits="userSpaceOnUse" /><linearGradient
       inkscape:collect="always"
       xlink:href="#linearGradient12461"
       id="linearGradient12465"
       x1="155.64449"
       y1="70.4024"
       x2="306.15475"
       y2="70.4024"
       gradientUnits="userSpaceOnUse" /></defs><g
     inkscape:label="Layer 1"
     inkscape:groupmode="layer"
     id="layer1"
     transform="translate(-88.132559,-50.64053)"><path
       style="mix-blend-mode:multiply;fill:#000000;fill-opacity:1;stroke:none;stroke-width:0.259205;stroke-opacity:1;filter:url(#filter8855)"
       d="m 93.999577,107.43337 c -4.880532,-1.56753 -6.558761,-8.190542 -3.079532,-12.153165 3.598691,-4.09868 10.808655,-2.732508 12.549995,2.378025 2.04864,6.01245 -3.46537,11.70385 -9.470463,9.77514 z m 23.709373,-0.0887 c -3.81865,-1.31987 -5.98895,-5.69962 -4.66319,-9.410477 0.31708,-0.887543 5.6198,-10.198455 10.88286,-19.108957 5.90479,-9.570628 18.81064,-2.793079 12.86328,7.610791 -0.28512,0.498966 -0.73735,1.286299 -1.00493,1.749634 -3.25297,5.247197 -6.17456,11.462976 -9.33077,16.135549 -2.06219,3.0553 -5.35864,4.19471 -8.74725,3.02346 z m 23.37846,-0.0313 c -7.77034,-3.13075 -5.35849,-14.983091 2.94365,-14.465727 4.52311,0.281861 7.27346,3.121644 7.27759,7.514207 0.005,5.20784 -5.40953,8.89021 -10.22124,6.95152 z M 104.75566,89.841424 c -5.747917,-1.874063 -7.034887,-6.824841 -3.37834,-12.995956 3.17476,-6.19997 7.21166,-12.540997 10.50326,-18.14593 4.21683,-7.410762 8.70896,-9.116467 13.32812,-5.060785 3.29493,2.892978 3.19068,6.127294 -0.39932,12.388911 -1.28609,2.243163 -4.14802,7.227819 -6.35986,11.077005 -2.21183,3.849188 -4.25558,7.427328 -4.54165,7.951424 -2.20589,4.041153 -5.75044,5.894455 -9.15221,4.785331 z"
       id="path473"
       sodipodi:nodetypes="ssssssccccssssssccssscs" /><text
       xml:space="preserve"
       transform="matrix(0.26458333,0,0,0.26458333,88.132559,50.64053)"
       id="text8118"
       style="font-size:63.9999px;font-family:Logirent;-inkscape-font-specification:'Logirent, Normal';white-space:pre;shape-inside:url(#rect8120);display:inline;fill:#ff00ff" /><text
       xml:space="preserve"
       style="font-size:16.9333px;font-family:Logirent;-inkscape-font-specification:'Logirent, Normal';fill:#ff00ff;stroke-width:0.264583"
       x="166.78722"
       y="64.169128"
       id="text8126"><tspan
         sodipodi:role="line"
         id="tspan8124"
         style="stroke-width:0.264583"
         x="166.78722"
         y="64.169128" /></text><g
       aria-label="Shorecel"
       id="text8130"
       style="font-weight:600;font-size:38.5035px;font-family:'Nunito Sans';-inkscape-font-specification:'Nunito Sans, Semi-Bold';opacity:1;vector-effect:none;stroke-width:0.259205;stop-color:#000000;stop-opacity:1"><path
         d="m 166.00194,84.321416 q -3.19579,0 -5.85254,-0.808574 -2.65674,-0.847077 -4.50491,-2.348714 l 1.27062,-3.157287 q 1.92517,1.463133 4.11987,2.1947 2.1947,0.731566 4.96696,0.731566 3.27279,0 4.81293,-1.155105 1.57865,-1.193608 1.57865,-3.08028 0,-1.54014 -1.1166,-2.42572 -1.11661,-0.924084 -3.73484,-1.463134 l -4.11988,-0.847077 q -3.65783,-0.77007 -5.4675,-2.541231 -1.77116,-1.771161 -1.77116,-4.774434 0,-2.425721 1.27062,-4.273889 1.30912,-1.848168 3.61933,-2.849259 2.31021,-1.039594 5.31348,-1.039594 2.77225,0 5.12097,0.847077 2.38721,0.808573 4.04286,2.387217 l -1.30911,3.041776 q -3.2728,-2.887762 -7.89322,-2.887762 -2.84926,0 -4.54342,1.270615 -1.65565,1.270616 -1.65565,3.388309 0,1.617147 1.0396,2.579734 1.03959,0.962588 3.46531,1.463133 l 4.08137,0.847077 q 3.85035,0.808574 5.73703,2.502728 1.88667,1.655651 1.88667,4.50491 0,2.387217 -1.27062,4.158378 -1.27061,1.771161 -3.58082,2.772252 -2.31021,0.962588 -5.506,0.962588 z"
         style="vector-effect:none;filter:url(#filter8855);stop-color:#000000;stop-opacity:1"
         id="path884" /><path
         d="M 180.47924,83.974884 V 56.829915 h 3.88886 v 11.281526 q 0.96258,-1.617147 2.57973,-2.42572 1.65565,-0.847077 3.69634,-0.847077 6.6611,0 6.6611,7.546686 v 11.589554 h -3.88885 V 72.616351 q 0,-2.425721 -0.96259,-3.542322 -0.92408,-1.116602 -2.92627,-1.116602 -2.34871,0 -3.77334,1.501637 -1.38612,1.463133 -1.38612,3.888854 v 10.626966 z"
         style="vector-effect:none;filter:url(#filter8855);stop-color:#000000;stop-opacity:1"
         id="path886" /><path
         d="m 210.82001,84.321416 q -2.84926,0 -4.92845,-1.193609 -2.07919,-1.193609 -3.23429,-3.349805 -1.1166,-2.194699 -1.1166,-5.197972 0,-3.003274 1.1166,-5.15947 1.1551,-2.194699 3.23429,-3.388308 2.07919,-1.193608 4.92845,-1.193608 2.77225,0 4.85144,1.193608 2.07919,1.193609 3.2343,3.388308 1.1551,2.156196 1.1551,5.15947 0,3.003273 -1.1551,5.197972 -1.15511,2.156196 -3.2343,3.349805 -2.07919,1.193609 -4.85144,1.193609 z m 0,-3.003274 q 2.38722,0 3.85035,-1.732657 1.46313,-1.732658 1.46313,-5.005455 0,-3.272798 -1.46313,-4.966952 -1.46313,-1.732658 -3.85035,-1.732658 -2.42572,0 -3.88885,1.732658 -1.46314,1.694154 -1.46314,4.966952 0,3.272797 1.46314,5.005455 1.46313,1.732657 3.88885,1.732657 z"
         style="vector-effect:none;filter:url(#filter8855);stop-color:#000000;stop-opacity:1"
         id="path888" /><path
         d="M 224.41177,83.974884 V 65.185175 h 3.77334 v 3.349805 q 1.46313,-3.349805 6.08355,-3.73484 l 1.27062,-0.07701 0.26952,3.311301 -2.34871,0.231021 q -5.12097,0.500546 -5.12097,5.27498 v 10.434449 z"
         style="vector-effect:none;filter:url(#filter8855);stop-color:#000000;stop-opacity:1"
         id="path890" /><path
         d="m 247.32132,84.321416 q -4.62042,0 -7.27716,-2.579735 -2.65674,-2.618238 -2.65674,-7.123148 0,-2.887763 1.1551,-5.082462 1.19361,-2.233203 3.2728,-3.465315 2.07919,-1.232112 4.77444,-1.232112 3.88885,0 6.12205,2.502727 2.23321,2.464224 2.23321,6.81512 v 1.309119 h -13.78426 q 0.42354,5.852532 6.19907,5.852532 1.61714,0 3.15728,-0.500545 1.57865,-0.500546 2.96477,-1.655651 l 1.15511,2.695245 q -1.27062,1.155105 -3.2728,1.809665 -2.00218,0.65456 -4.04287,0.65456 z m -0.57755,-16.749024 q -2.42572,0 -3.85035,1.501637 -1.42463,1.501636 -1.73266,4.004364 h 10.51146 q -0.11551,-2.618238 -1.38613,-4.042868 -1.27061,-1.463133 -3.54232,-1.463133 z"
         style="vector-effect:none;filter:url(#filter8855);stop-color:#000000;stop-opacity:1"
         id="path892" /><path
         d="m 267.45868,84.321416 q -2.88776,0 -5.00546,-1.193609 -2.07918,-1.232112 -3.23429,-3.426812 -1.1551,-2.233203 -1.1551,-5.236476 0,-4.466406 2.54123,-7.046141 2.54123,-2.579734 6.85362,-2.579734 1.77116,0 3.50382,0.616056 1.73266,0.616056 2.84926,1.694154 l -1.23211,2.733748 q -1.0781,-1.001091 -2.38722,-1.463133 -1.27062,-0.500545 -2.42572,-0.500545 -2.73375,0 -4.23539,1.732657 -1.46313,1.694154 -1.46313,4.851442 0,3.157287 1.46313,4.966951 1.50164,1.771161 4.23539,1.771161 1.1551,0 2.42572,-0.462042 1.30912,-0.500545 2.38722,-1.501636 l 1.23211,2.772252 q -1.1166,1.039594 -2.88777,1.655651 -1.73265,0.616056 -3.46531,0.616056 z"
         style="vector-effect:none;filter:url(#filter8855);stop-color:#000000;stop-opacity:1"
         id="path894" /><path
         d="m 285.59385,84.321416 q -4.62042,0 -7.27716,-2.579735 -2.65674,-2.618238 -2.65674,-7.123148 0,-2.887763 1.1551,-5.082462 1.19361,-2.233203 3.2728,-3.465315 2.07919,-1.232112 4.77443,-1.232112 3.88886,0 6.12206,2.502727 2.2332,2.464224 2.2332,6.81512 v 1.309119 h -13.78425 q 0.42354,5.852532 6.19906,5.852532 1.61715,0 3.15729,-0.500545 1.57865,-0.500546 2.96477,-1.655651 l 1.15511,2.695245 q -1.27062,1.155105 -3.2728,1.809665 -2.00218,0.65456 -4.04287,0.65456 z M 285.0163,67.572392 q -2.42572,0 -3.85035,1.501637 -1.42463,1.501636 -1.73266,4.004364 h 10.51146 q -0.11551,-2.618238 -1.38613,-4.042868 -1.27061,-1.463133 -3.54232,-1.463133 z"
         style="vector-effect:none;filter:url(#filter8855);stop-color:#000000;stop-opacity:1"
         id="path896" /><path
         d="m 303.57501,84.321416 q -3.08028,0 -4.62042,-1.732658 -1.50163,-1.732658 -1.50163,-5.082462 V 56.829915 h 3.88885 v 20.44536 q 0,3.811846 3.11878,3.811846 0.46205,0 0.84708,-0.0385 0.42354,-0.0385 0.84708,-0.154014 l -0.077,3.118784 q -1.30912,0.308028 -2.50273,0.308028 z"
         style="vector-effect:none;filter:url(#filter8855);stop-color:#000000;stop-opacity:1"
         id="path898" /></g><text
       xml:space="preserve"
       transform="matrix(0.26458333,0,0,0.26458333,88.132559,50.64053)"
       id="text8182"
       style="font-size:63.9999px;font-family:Logirent;-inkscape-font-specification:'Logirent, Normal';white-space:pre;shape-inside:url(#rect8184);display:inline;fill:#ff00ff" /><g
       aria-label="WEB SERVICES"
       transform="matrix(0.26458333,0,0,0.26458333,84.042517,50.955149)"
       id="text8240"
       style="font-size:63.9999px;font-family:'Nunito Sans';-inkscape-font-specification:'Nunito Sans, Normal';white-space:pre;shape-inside:url(#rect8242);display:inline;opacity:1;vector-effect:none;stroke-width:0.979672;stop-color:#000000;stop-opacity:1"><path
         d="m 337.59907,187.4271 -15.80798,-45.11993 h 5.50399 l 12.73598,37.43994 13.05598,-37.43994 h 4.224 l 12.92798,37.75994 12.99198,-37.75994 h 5.24799 l -15.80798,45.11993 h -4.67199 l -12.86398,-37.11994 -12.99198,37.11994 z"
         style="vector-effect:none;filter:url(#filter8855);stop-color:#000000;stop-opacity:1"
         id="path861" /><path
         d="m 395.90297,187.4271 v -45.11993 h 28.47995 v 4.41599 h -23.35996 v 15.61598 h 22.01597 v 4.41599 h -22.01597 v 16.25598 h 23.35996 v 4.41599 z"
         style="vector-effect:none;filter:url(#filter8855);stop-color:#000000;stop-opacity:1"
         id="path863" /><path
         d="m 433.21492,187.4271 v -45.11993 h 18.04797 q 6.97599,0 10.75198,3.13599 3.84,3.072 3.84,8.63999 0,3.71199 -1.92,6.33599 -1.92,2.624 -5.31199,3.83999 3.90399,1.024 6.07999,3.776 2.24,2.75199 2.24,6.97599 0,6.01599 -3.904,9.21598 -3.90399,3.2 -11.00798,3.2 z m 5.11999,-24.95996 h 12.15998 q 10.17599,0 10.17599,-7.93599 0,-7.99999 -10.17599,-7.99999 h -12.15998 z m 0,20.73597 h 13.18398 q 10.23998,0 10.23998,-8.25599 0,-8.25599 -10.23998,-8.25599 h -13.18398 z"
         style="vector-effect:none;filter:url(#filter8855);stop-color:#000000;stop-opacity:1"
         id="path865" /><path
         d="m 507.51884,188.0031 q -5.31199,0 -9.59998,-1.344 -4.288,-1.408 -7.42399,-4.03199 l 1.85599,-4.224 q 3.264,2.496 6.84799,3.712 3.584,1.21599 8.31999,1.21599 5.75999,0 8.51199,-2.11199 2.81599,-2.176 2.81599,-5.69599 0,-2.816 -2.04799,-4.48 -1.984,-1.66399 -6.71999,-2.62399 l -6.65599,-1.344 q -6.01599,-1.28 -9.02399,-4.15999 -2.94399,-2.944 -2.94399,-7.80799 0,-4.032 2.04799,-7.03999 2.112,-3.008 5.82399,-4.67199 3.712,-1.664 8.57599,-1.664 4.54399,0 8.44799,1.472 3.90399,1.40799 6.59199,4.09599 l -1.856,4.09599 q -2.88,-2.62399 -6.07999,-3.77599 -3.2,-1.216 -7.16799,-1.216 -5.05599,0 -8.06399,2.368 -3.00799,2.30399 -3.00799,6.14399 0,3.07199 1.85599,4.86399 1.92,1.792 6.20799,2.624 l 6.65599,1.408 q 6.46399,1.34399 9.53599,4.09599 3.13599,2.68799 3.13599,7.35999 0,3.77599 -2.04799,6.65599 -1.984,2.87999 -5.75999,4.47999 -3.712,1.6 -8.83199,1.6 z"
         style="vector-effect:none;filter:url(#filter8855);stop-color:#000000;stop-opacity:1"
         id="path867" /><path
         d="m 532.28679,187.4271 v -45.11993 h 28.47995 v 4.41599 h -23.35996 v 15.61598 h 22.01597 v 4.41599 h -22.01597 v 16.25598 h 23.35996 v 4.41599 z"
         style="vector-effect:none;filter:url(#filter8855);stop-color:#000000;stop-opacity:1"
         id="path869" /><path
         d="m 569.59874,187.4271 v -45.11993 h 17.85597 q 7.29599,0 11.13598,3.39199 3.904,3.392 3.904,9.66399 0,4.99199 -2.752,8.19199 -2.68799,3.19999 -7.67999,4.15999 2.944,1.024 5.056,4.99199 l 7.93598,14.71998 h -5.75999 l -7.80799,-14.46398 q -1.47199,-2.68799 -3.39199,-3.64799 -1.92,-0.96 -5.05599,-0.96 h -8.19199 v 19.07197 z m 5.24799,-23.23197 h 11.83998 q 10.62398,0 10.62398,-8.83198 0,-8.70399 -10.62398,-8.70399 h -11.83998 z"
         style="vector-effect:none;filter:url(#filter8855);stop-color:#000000;stop-opacity:1"
         id="path871" /><path
         d="m 625.79073,187.4271 -19.71197,-45.11993 h 5.63199 l 16.57598,38.46394 16.51197,-38.46394 h 5.50399 l -19.77597,45.11993 z"
         style="vector-effect:none;filter:url(#filter8855);stop-color:#000000;stop-opacity:1"
         id="path873" /><path
         d="m 655.80661,187.4271 v -45.11993 h 5.24799 v 45.11993 z"
         style="vector-effect:none;filter:url(#filter8855);stop-color:#000000;stop-opacity:1"
         id="path875" /><path
         d="m 691.71058,188.0031 q -6.65599,0 -11.39198,-2.816 -4.73599,-2.81599 -7.29599,-7.99999 -2.496,-5.18399 -2.496,-12.35198 0,-7.10399 2.496,-12.28798 2.56,-5.18399 7.29599,-7.99998 4.73599,-2.816 11.39198,-2.816 4.67199,0 8.57599,1.472 3.96799,1.47199 6.71999,4.28799 l -2.048,4.28799 q -2.944,-2.75199 -6.14399,-3.96799 -3.136,-1.28 -6.97599,-1.28 -7.61599,0 -11.64798,4.79999 -4.032,4.8 -4.032,13.50398 0,8.76799 4.032,13.56798 4.03199,4.8 11.64798,4.8 3.83999,0 6.97599,-1.216 3.19999,-1.28 6.14399,-4.032 l 2.048,4.288 q -2.752,2.75199 -6.71999,4.28799 -3.904,1.472 -8.57599,1.472 z"
         style="vector-effect:none;filter:url(#filter8855);stop-color:#000000;stop-opacity:1"
         id="path877" /><path
         d="m 715.26257,187.4271 v -45.11993 h 28.47996 v 4.41599 h -23.35997 v 15.61598 h 22.01597 v 4.41599 h -22.01597 v 16.25598 h 23.35997 v 4.41599 z"
         style="vector-effect:none;filter:url(#filter8855);stop-color:#000000;stop-opacity:1"
         id="path879" /><path
         d="m 766.52648,188.0031 q -5.31199,0 -9.59998,-1.344 -4.28799,-1.408 -7.42399,-4.03199 l 1.856,-4.224 q 3.26399,2.496 6.84799,3.712 3.58399,1.21599 8.31998,1.21599 5.76,0 8.51199,-2.11199 2.816,-2.176 2.816,-5.69599 0,-2.816 -2.048,-4.48 -1.984,-1.66399 -6.71999,-2.62399 l -6.65599,-1.344 q -6.01599,-1.28 -9.02398,-4.15999 -2.944,-2.944 -2.944,-7.80799 0,-4.032 2.048,-7.03999 2.11199,-3.008 5.82399,-4.67199 3.71199,-1.664 8.57598,-1.664 4.544,0 8.44799,1.472 3.904,1.40799 6.59199,4.09599 l -1.856,4.09599 q -2.87999,-2.62399 -6.07999,-3.77599 -3.19999,-1.216 -7.16799,-1.216 -5.05599,0 -8.06398,2.368 -3.008,2.30399 -3.008,6.14399 0,3.07199 1.856,4.86399 1.92,1.792 6.20799,2.624 l 6.65599,1.408 q 6.46399,1.34399 9.53598,4.09599 3.136,2.68799 3.136,7.35999 0,3.77599 -2.048,6.65599 -1.98399,2.87999 -5.75999,4.47999 -3.71199,1.6 -8.83199,1.6 z"
         style="vector-effect:none;filter:url(#filter8855);stop-color:#000000;stop-opacity:1"
         id="path881" /></g></g></svg>
